<svg xmlns="http://www.w3.org/2000/svg" viewBox="0 0 200 200" preserveAspectRatio="xMidYMid slice" width="200" height="200">
  <g opacity="0.07" stroke="#fff" stroke-width="1.5" stroke-linecap="round">
    <line x1="20" y1="0" x2="10" y2="40"/><line x1="40" y1="0" x2="30" y2="40"/>
    <line x1="60" y1="0" x2="50" y2="40"/><line x1="80" y1="0" x2="70" y2="40"/>
    <line x1="100" y1="0" x2="90" y2="40"/><line x1="120" y1="0" x2="110" y2="40"/>
    <line x1="140" y1="0" x2="130" y2="40"/><line x1="160" y1="0" x2="150" y2="40"/>
    <line x1="180" y1="0" x2="170" y2="40"/><line x1="200" y1="0" x2="190" y2="40"/>
    <line x1="20" y1="50" x2="10" y2="90"/><line x1="40" y1="50" x2="30" y2="90"/>
    <line x1="60" y1="50" x2="50" y2="90"/><line x1="80" y1="50" x2="70" y2="90"/>
    <line x1="100" y1="50" x2="90" y2="90"/><line x1="120" y1="50" x2="110" y2="90"/>
    <line x1="140" y1="50" x2="130" y2="90"/><line x1="160" y1="50" x2="150" y2="90"/>
    <line x1="180" y1="50" x2="170" y2="90"/><line x1="200" y1="50" x2="190" y2="90"/>
    <line x1="20" y1="100" x2="10" y2="140"/><line x1="40" y1="100" x2="30" y2="140"/>
    <line x1="60" y1="100" x2="50" y2="140"/><line x1="80" y1="100" x2="70" y2="140"/>
    <line x1="100" y1="100" x2="90" y2="140"/><line x1="120" y1="100" x2="110" y2="140"/>
    <line x1="140" y1="100" x2="130" y2="140"/><line x1="160" y1="100" x2="150" y2="140"/>
    <line x1="180" y1="100" x2="170" y2="140"/><line x1="200" y1="100" x2="190" y2="140"/>
    <line x1="20" y1="150" x2="10" y2="190"/><line x1="40" y1="150" x2="30" y2="190"/>
    <line x1="60" y1="150" x2="50" y2="190"/><line x1="80" y1="150" x2="70" y2="190"/>
    <line x1="100" y1="150" x2="90" y2="190"/><line x1="120" y1="150" x2="110" y2="190"/>
    <line x1="140" y1="150" x2="130" y2="190"/><line x1="160" y1="150" x2="150" y2="190"/>
    <line x1="180" y1="150" x2="170" y2="190"/><line x1="200" y1="150" x2="190" y2="190"/>
  </g>
</svg>
