<?xml version="1.0" encoding="utf-8"?>
<!-- Generator: Adobe Illustrator 24.3.0, SVG Export Plug-In . SVG Version: 6.00 Build 0)  -->
<svg version="1.1" id="Слой_1" xmlns="http://www.w3.org/2000/svg" xmlns:xlink="http://www.w3.org/1999/xlink" x="0px" y="0px"
	 viewBox="0 0 200 200" style="enable-background:new 0 0 200 200;" xml:space="preserve">
<style type="text/css">
	.st0{opacity:0.94;}
	.st1{fill:#2193CC;stroke:#88E3FF;stroke-miterlimit:10;}
</style>
<g class="st0">
	<circle class="st1" cx="17.8" cy="16.9" r="2.5"/>
	<circle class="st1" cx="52.8" cy="41.9" r="1.5"/>
	<circle class="st1" cx="87.8" cy="11.9" r="3"/>
	<circle class="st1" cx="127.8" cy="31.9" r="2"/>
	<circle class="st1" cx="167.8" cy="19.9" r="2.5"/>
	<circle class="st1" cx="7.8" cy="61.9" r="1.5"/>
	<circle class="st1" cx="42.8" cy="81.9" r="3"/>
	<circle class="st1" cx="82.8" cy="66.9" r="2"/>
	<circle class="st1" cx="112.8" cy="91.9" r="2.5"/>
	<circle class="st1" cx="152.8" cy="71.9" r="1.5"/>
	<circle class="st1" cx="187.8" cy="56.9" r="3"/>
	<circle class="st1" cx="27.8" cy="121.9" r="2"/>
	<circle class="st1" cx="67.8" cy="111.9" r="2.5"/>
	<circle class="st1" cx="97.8" cy="141.9" r="1.5"/>
	<circle class="st1" cx="142.8" cy="121.9" r="3"/>
	<circle class="st1" cx="177.8" cy="101.9" r="2"/>
	<circle class="st1" cx="12.8" cy="161.9" r="2.5"/>
	<circle class="st1" cx="57.8" cy="176.9" r="1.5"/>
	<circle class="st1" cx="92.8" cy="186.9" r="3"/>
	<circle class="st1" cx="132.8" cy="166.9" r="2"/>
	<circle class="st1" cx="172.8" cy="181.9" r="2.5"/>
	<circle class="st1" cx="197.8" cy="141.9" r="1.5"/>
	<circle class="st1" cx="2.8" cy="191.9" r="2"/>
</g>
</svg>
