<svg xmlns="http://www.w3.org/2000/svg" viewBox="0 0 200 200" preserveAspectRatio="xMidYMid slice" width="200" height="200">
  <!-- sunny-pattern -->
  <g opacity="0.07" stroke="#fff" stroke-width="2" stroke-linecap="round" fill="none">
    <line x1="40" y1="20" x2="40" y2="10"/><line x1="40" y1="30" x2="40" y2="40"/>
    <line x1="25" y1="25" x2="30" y2="30"/><line x1="55" y1="25" x2="50" y2="30"/>
    <line x1="20" y1="40" x2="30" y2="40"/><line x1="50" y1="40" x2="60" y2="40"/>
    <circle cx="40" cy="30" r="8" fill="#fff" stroke="none"/>
    <line x1="140" y1="70" x2="140" y2="60"/><line x1="140" y1="80" x2="140" y2="90"/>
    <line x1="125" y1="75" x2="130" y2="80"/><line x1="155" y1="75" x2="150" y2="80"/>
    <line x1="120" y1="90" x2="130" y2="90"/><line x1="150" y1="90" x2="160" y2="90"/>
    <circle cx="140" cy="80" r="8" fill="#fff" stroke="none"/>
    <line x1="80" y1="150" x2="80" y2="140"/><line x1="80" y1="160" x2="80" y2="170"/>
    <line x1="65" y1="155" x2="70" y2="160"/><line x1="95" y1="155" x2="90" y2="160"/>
    <circle cx="80" cy="160" r="8" fill="#fff" stroke="none"/>
  </g>
</svg>
